<?xml version="1.0" standalone="no"?>
<!DOCTYPE svg PUBLIC "-//W3C//DTD SVG 20010904//EN"
 "http://www.w3.org/TR/2001/REC-SVG-20010904/DTD/svg10.dtd">
<svg version="1.0" xmlns="http://www.w3.org/2000/svg"
 width="52px" height="52px" viewBox="0 0 180.000000 198.000000"
 preserveAspectRatio="xMidYMid meet">
<g transform="translate(0.000000,198.000000) scale(0.100000,-0.100000)"
fill="#fff" stroke="none">
<path d="M843 1968 c-7 -8 -15 -59 -18 -114 -3 -54 -8 -118 -11 -141 l-5 -43
-168 0 c-241 0 -326 -21 -326 -81 0 -19 11 -29 52 -49 29 -14 52 -27 53 -30 0
-3 -20 -17 -44 -33 -65 -41 -197 -184 -245 -265 -94 -158 -138 -331 -128 -507
12 -198 66 -325 197 -456 73 -74 100 -93 190 -138 305 -150 715 -150 1020 0
90 45 117 64 190 138 131 131 185 258 197 456 10 176 -34 349 -128 507 -50 84
-180 224 -251 269 l-50 33 48 14 c101 29 113 80 29 122 -48 24 -57 25 -243 25
l-194 0 7 141 c5 94 4 144 -3 148 -6 3 -43 9 -84 12 -57 5 -76 3 -85 -8z m105
-210 l-3 -153 175 4 c160 3 288 -4 277 -16 -3 -2 -61 -14 -128 -26 -145 -26
-149 -30 -96 -110 52 -78 101 -176 93 -185 -10 -9 -106 44 -248 140 -65 43
-120 78 -122 78 -3 0 -65 -40 -138 -88 -190 -127 -213 -140 -205 -118 4 10 35
60 69 113 47 73 59 99 52 111 -6 9 -56 27 -124 44 -181 45 -171 50 103 49 172
0 216 2 220 13 3 8 9 77 13 155 l7 141 29 0 29 0 -3 -152z m485 -374 c36 -29
88 -81 117 -116 58 -71 131 -213 155 -303 25 -90 30 -284 11 -374 -69 -324
-377 -521 -816 -521 -439 0 -747 197 -816 521 -21 99 -14 286 15 384 59 202
210 396 379 488 45 24 102 28 102 6 0 -5 -19 -39 -42 -76 -81 -133 -95 -193
-48 -208 30 -9 124 38 270 136 69 46 128 85 131 87 4 2 36 -18 72 -42 90 -64
243 -153 284 -167 113 -37 127 54 33 212 -22 38 -38 74 -35 79 9 15 112 -43
188 -106z"/>
</g>
</svg>
